<svg width="112" height="30" viewBox="0 0 112 30" fill="none" xmlns="http://www.w3.org/2000/svg">
<path d="M3.75747 23.421L33.0494 6.50928M33.0494 6.50928C33.0494 6.50928 29.2523 8.70154 26.9566 7.85716M33.0494 6.50928C33.0494 6.50928 29.5235 8.54495 26.9566 7.85716M33.0494 6.50928C33.0494 6.50928 29.6184 8.49903 28.9503 10.684C28.2378 13.0144 30.2982 16.7768 30.2982 16.7768M22.7819 3.75812C22.7819 3.75812 24.7152 7.25656 26.9566 7.85716" stroke="white" stroke-width="2.19"/>
<path d="M41.7575 23.421L71.0494 6.50928M71.0494 6.50928C71.0494 6.50928 67.2523 8.70154 64.9566 7.85716M71.0494 6.50928C71.0494 6.50928 67.5235 8.54495 64.9566 7.85716M71.0494 6.50928C71.0494 6.50928 67.6184 8.49903 66.9503 10.684C66.2378 13.0144 68.2982 16.7768 68.2982 16.7768M60.7819 3.75812C60.7819 3.75812 62.7152 7.25656 64.9566 7.85716" stroke="white" stroke-width="2.19"/>
<path d="M78.7575 23.421L108.049 6.50928M108.049 6.50928C108.049 6.50928 104.252 8.70154 101.957 7.85716M108.049 6.50928C108.049 6.50928 104.524 8.54495 101.957 7.85716M108.049 6.50928C108.049 6.50928 104.618 8.49903 103.95 10.684C103.238 13.0144 105.298 16.7768 105.298 16.7768M97.7819 3.75812C97.7819 3.75812 99.7152 7.25656 101.957 7.85716" stroke="white" stroke-width="2.19"/>
</svg>
