<svg width="111" height="35" viewBox="0 0 111 35" fill="none" xmlns="http://www.w3.org/2000/svg">
<path d="M24.5391 26.1797C23.7109 26.4766 22.9766 26.7188 22.3359 26.9062C21.7109 27.0938 21.1641 27.2344 20.6953 27.3281C20.2266 27.4375 19.8281 27.5078 19.5 27.5391C19.1719 27.5859 18.9062 27.6094 18.7031 27.6094C18.5469 27.6094 18.4219 27.6016 18.3281 27.5859C18.25 27.5859 18.1797 27.5781 18.1172 27.5625C18.0547 27.5469 18 27.5312 17.9531 27.5156C17.7188 27.375 17.4922 27.125 17.2734 26.7656C17.0547 26.4219 16.8516 26 16.6641 25.5C16.4922 25.0156 16.3516 24.4766 16.2422 23.8828C16.1328 23.2734 16.0781 22.6406 16.0781 21.9844C16.0781 21.5781 16.1016 21.1875 16.1484 20.8125C16.1953 20.3438 16.2969 19.7734 16.4531 19.1016C16.6094 18.4141 16.7891 17.6875 16.9922 16.9219C17.1953 16.1406 17.4062 15.3438 17.625 14.5312C17.8438 13.7188 18.0469 12.9531 18.2344 12.2344C18.4219 11.5 18.5703 10.8438 18.6797 10.2656C18.8047 9.6875 18.8672 9.24219 18.8672 8.92969C18.8672 8.75781 18.8438 8.63281 18.7969 8.55469C18.7188 8.41406 18.5391 8.34375 18.2578 8.34375C18.0391 8.34375 17.7891 8.38281 17.5078 8.46094C17.2266 8.53906 16.9297 8.64844 16.6172 8.78906C16.3047 8.91406 15.9922 9.07031 15.6797 9.25781C15.3672 9.42969 15.0781 9.61719 14.8125 9.82031C14.6875 10.2734 14.4531 11.0938 14.1094 12.2812C13.9688 12.7812 13.7891 13.3906 13.5703 14.1094C13.3516 14.8281 13.0938 15.6719 12.7969 16.6406C12.5156 17.6094 12.1797 18.7188 11.7891 19.9688C11.4141 21.2188 10.9922 22.6328 10.5234 24.2109L8.08594 23.7188C8.30469 23.125 8.57812 22.3984 8.90625 21.5391C9.23438 20.6797 9.57031 19.7656 9.91406 18.7969C10.2734 17.8281 10.625 16.8438 10.9688 15.8438C11.3281 14.8281 11.6484 13.8828 11.9297 13.0078C12.2109 12.1328 12.4375 11.3594 12.6094 10.6875C12.7812 10.0156 12.8672 9.52344 12.8672 9.21094C12.8672 9.08594 12.8594 9.00781 12.8438 8.97656C12.7812 8.80469 12.6797 8.6875 12.5391 8.625C12.3984 8.5625 12.2344 8.53125 12.0469 8.53125C11.8125 8.53125 11.5547 8.57031 11.2734 8.64844C11.0078 8.72656 10.7422 8.82812 10.4766 8.95312C10.2266 9.0625 9.98438 9.1875 9.75 9.32812C9.53125 9.46875 9.35938 9.59375 9.23438 9.70312C9.10938 9.8125 8.96094 9.94531 8.78906 10.1016C8.63281 10.2578 8.46094 10.4219 8.27344 10.5938C8.13281 11.0312 7.85938 11.8047 7.45312 12.9141C7.28125 13.3984 7.07031 13.9766 6.82031 14.6484C6.58594 15.3203 6.30469 16.125 5.97656 17.0625C5.64844 17.9844 5.27344 19.0391 4.85156 20.2266C4.44531 21.4141 3.97656 22.7656 3.44531 24.2812L1.07812 23.3906C1.6875 21.8906 2.22656 20.5547 2.69531 19.3828C3.17969 18.2109 3.60156 17.1797 3.96094 16.2891C4.32031 15.3828 4.625 14.6094 4.875 13.9688C5.125 13.3281 5.33594 12.7891 5.50781 12.3516C5.91406 11.3203 6.16406 10.6406 6.25781 10.3125C6.33594 10.0469 6.40625 9.75781 6.46875 9.44531C6.54688 9.13281 6.58594 8.85156 6.58594 8.60156C6.58594 8.35156 6.53906 8.14844 6.44531 7.99219C6.36719 7.82031 6.22656 7.72656 6.02344 7.71094C5.99219 7.71094 5.90625 7.73438 5.76562 7.78125C5.64062 7.82812 5.4375 7.96094 5.15625 8.17969C4.875 8.39844 4.50781 8.74219 4.05469 9.21094C3.60156 9.66406 3.03906 10.3125 2.36719 11.1562L1.96875 8.69531C2.20312 8.44531 2.53125 8.15625 2.95312 7.82812C3.39062 7.48438 3.84375 7.16406 4.3125 6.86719C4.79688 6.55469 5.26562 6.29687 5.71875 6.09375C6.1875 5.89063 6.57812 5.78906 6.89062 5.78906C6.95312 5.78906 7.03125 5.80469 7.125 5.83594C7.26562 5.86719 7.39844 5.96094 7.52344 6.11719C7.64844 6.25781 7.75781 6.4375 7.85156 6.65625C7.96094 6.875 8.04688 7.125 8.10938 7.40625C8.1875 7.67188 8.25 7.94531 8.29688 8.22656C8.625 8.00781 8.98438 7.78906 9.375 7.57031C9.78125 7.35156 10.1797 7.16406 10.5703 7.00781C10.9766 6.83594 11.3594 6.70312 11.7188 6.60938C12.0781 6.5 12.375 6.44531 12.6094 6.44531H12.7031C12.9688 6.47656 13.2344 6.61719 13.5 6.86719C13.7812 7.10156 14.0234 7.39063 14.2266 7.73438C14.5078 7.57813 14.8438 7.41406 15.2344 7.24219C15.625 7.05469 16.0156 6.89062 16.4062 6.75C16.7969 6.60938 17.1719 6.49219 17.5312 6.39844C17.8906 6.30469 18.1875 6.25781 18.4219 6.25781H18.4453C18.7266 6.25781 19.0312 6.39062 19.3594 6.65625C19.7031 6.90625 20.0156 7.21875 20.2969 7.59375C20.5938 7.95313 20.8438 8.33594 21.0469 8.74219C21.25 9.13281 21.3594 9.47656 21.375 9.77344C21.375 9.94531 21.2891 10.3203 21.1172 10.8984C20.9609 11.4609 20.75 12.1562 20.4844 12.9844C20.2344 13.7969 19.9609 14.6953 19.6641 15.6797C19.3672 16.6641 19.0859 17.6562 18.8203 18.6562C18.5703 19.6406 18.3594 20.5938 18.1875 21.5156C18.0156 22.4375 17.9297 23.2344 17.9297 23.9062C17.9297 24.7656 18.0859 25.3516 18.3984 25.6641C18.6797 25.8984 18.9688 26.0625 19.2656 26.1562C19.5625 26.2656 19.8672 26.3203 20.1797 26.3203C20.6016 26.3203 21.0156 26.2422 21.4219 26.0859C21.8281 25.9453 22.2031 25.7812 22.5469 25.5938C22.9062 25.4062 23.2188 25.2188 23.4844 25.0312C23.75 24.8438 23.9453 24.7109 24.0703 24.6328L24.5391 26.1797ZM25.5469 22.5938C25.7188 22.5938 25.9453 22.5078 26.2266 22.3359C26.5078 22.1484 26.8125 21.9062 27.1406 21.6094C27.4688 21.3125 27.8047 20.9766 28.1484 20.6016C28.5078 20.2266 28.8516 19.8516 29.1797 19.4766C29.3516 18.9297 29.5703 18.2656 29.8359 17.4844C30.1172 16.6875 30.4297 15.8281 30.7734 14.9062L30.4453 15.5391C30.3984 15.3047 30.3203 15.0859 30.2109 14.8828C30.1016 14.6797 29.9766 14.5 29.8359 14.3438C29.6953 14.1719 29.5469 14.0391 29.3906 13.9453C29.25 13.8516 29.125 13.8047 29.0156 13.8047C28.9375 13.8047 28.8828 13.8203 28.8516 13.8516C28.7891 13.8984 28.6484 14.0469 28.4297 14.2969C28.2266 14.5312 27.9766 14.8281 27.6797 15.1875C27.3984 15.5469 27.0938 15.9453 26.7656 16.3828C26.4531 16.8203 26.1562 17.25 25.875 17.6719C25.6094 18.0938 25.375 18.4922 25.1719 18.8672C24.9688 19.2266 24.8516 19.5156 24.8203 19.7344C24.7891 19.9531 24.7578 20.1797 24.7266 20.4141C24.6953 20.6328 24.6797 20.8516 24.6797 21.0703C24.6797 21.4766 24.7344 21.8281 24.8438 22.125C24.9688 22.4219 25.1875 22.5781 25.5 22.5938H25.5469ZM36.1172 21.0234C35.9141 21.2578 35.625 21.5859 35.25 22.0078C34.875 22.4297 34.4688 22.8516 34.0312 23.2734C33.6094 23.6797 33.1797 24.0312 32.7422 24.3281C32.3203 24.6406 31.9609 24.7969 31.6641 24.7969H31.6172C31.3203 24.7969 31 24.7578 30.6562 24.6797C30.3125 24.6016 29.9922 24.4922 29.6953 24.3516C29.4141 24.2266 29.1719 24.0781 28.9688 23.9062C28.7812 23.7188 28.6875 23.5156 28.6875 23.2969V23.2734C28.6875 23.1172 28.6953 22.9375 28.7109 22.7344C28.7266 22.5156 28.7422 22.2891 28.7578 22.0547C28.0859 22.7109 27.4141 23.2578 26.7422 23.6953C26.0859 24.1328 25.5078 24.3516 25.0078 24.3516C24.8828 24.3516 24.7969 24.3438 24.75 24.3281C24.4688 24.2812 24.2109 24.1484 23.9766 23.9297C23.7422 23.6953 23.5391 23.4141 23.3672 23.0859C23.2109 22.7422 23.0859 22.3672 22.9922 21.9609C22.8984 21.5547 22.8516 21.1484 22.8516 20.7422C22.8516 20.1484 22.9453 19.5938 23.1328 19.0781C23.2578 18.75 23.4375 18.3594 23.6719 17.9062C23.9062 17.4531 24.1719 16.9766 24.4688 16.4766C24.7812 15.9766 25.1094 15.4844 25.4531 15C25.8125 14.5 26.1641 14.0469 26.5078 13.6406C26.8672 13.2344 27.2188 12.9062 27.5625 12.6562C27.9062 12.3906 28.2266 12.2344 28.5234 12.1875C28.6016 12.1719 28.6719 12.1641 28.7344 12.1641C28.7969 12.1641 28.8594 12.1641 28.9219 12.1641C29.25 12.1641 29.5391 12.2109 29.7891 12.3047C30.0547 12.3984 30.2812 12.5234 30.4688 12.6797C30.6719 12.8203 30.8359 12.9766 30.9609 13.1484C31.0859 13.3203 31.1797 13.4766 31.2422 13.6172C31.2891 13.4297 31.3438 13.2812 31.4062 13.1719L32.9297 13.4062C32.5078 14.4688 32.1172 15.5469 31.7578 16.6406C31.3984 17.7188 31.1172 18.75 30.9141 19.7344L30.9375 19.8047L30.8906 19.8516C30.7969 20.3203 30.7188 20.7656 30.6562 21.1875C30.6094 21.6094 30.5859 22 30.5859 22.3594C30.5859 22.5312 30.5859 22.6797 30.5859 22.8047C30.6016 22.9297 30.6172 23.0547 30.6328 23.1797C31.0234 23.0391 31.4609 22.8281 31.9453 22.5469C32.4453 22.2656 32.9297 21.9531 33.3984 21.6094C33.8828 21.2656 34.3359 20.9141 34.7578 20.5547C35.1797 20.1797 35.5234 19.8516 35.7891 19.5703L36.1172 21.0234ZM37.3828 22.8047C37.5703 22.8047 37.8047 22.7109 38.0859 22.5234C38.3672 22.3359 38.6719 22.0938 39 21.7969C39.3438 21.4844 39.6953 21.1406 40.0547 20.7656C40.4141 20.375 40.7578 19.9844 41.0859 19.5938C41.2109 19.0625 41.3594 18.4219 41.5312 17.6719C41.7031 16.9062 41.8984 16.0859 42.1172 15.2109C41.9609 14.8672 41.7578 14.5781 41.5078 14.3438C41.2578 14.1094 41.0391 13.9922 40.8516 13.9922C40.7734 13.9922 40.7188 14.0078 40.6875 14.0391C40.625 14.0859 40.4844 14.2344 40.2656 14.4844C40.0469 14.7188 39.7969 15.0156 39.5156 15.375C39.2344 15.7344 38.9297 16.1328 38.6016 16.5703C38.2891 17.0078 37.9922 17.4375 37.7109 17.8594C37.4453 18.2812 37.2109 18.6797 37.0078 19.0547C36.8047 19.4141 36.6875 19.7031 36.6562 19.9219C36.625 20.1406 36.5938 20.3672 36.5625 20.6016C36.5312 20.8203 36.5156 21.0391 36.5156 21.2578C36.5156 21.6641 36.5703 22.0156 36.6797 22.3125C36.8047 22.6094 37.0234 22.7734 37.3359 22.8047H37.3828ZM46.8047 7.54688C46.5391 7.84375 46.2578 8.28125 45.9609 8.85938C45.6641 9.4375 45.3672 10.1094 45.0703 10.875C44.7891 11.6406 44.5078 12.4766 44.2266 13.3828C43.9609 14.2734 43.7188 15.1797 43.5 16.1016C43.8594 15.4297 44.2344 14.6953 44.625 13.8984C45.0156 13.1016 45.3672 12.3125 45.6797 11.5312C45.9922 10.75 46.25 10.0078 46.4531 9.30469C46.6719 8.60156 46.7891 8.01562 46.8047 7.54688ZM42.8203 19.9219C42.7891 20.2031 42.7656 20.4844 42.75 20.7656C42.7344 21.0312 42.7266 21.2969 42.7266 21.5625C42.7266 22.2812 42.7969 22.8828 42.9375 23.3672C43.1875 23.2734 43.4922 23.1406 43.8516 22.9688C44.2266 22.7969 44.6172 22.6016 45.0234 22.3828C45.4297 22.1641 45.8438 21.9297 46.2656 21.6797C46.6875 21.4141 47.0859 21.1562 47.4609 20.9062C47.8359 20.6562 48.1641 20.4141 48.4453 20.1797C48.7422 19.9297 48.9688 19.7109 49.125 19.5234L49.3828 21.2109C49.2109 21.4453 48.8984 21.7734 48.4453 22.1953C47.9922 22.6172 47.5 23.0391 46.9688 23.4609C46.4375 23.8672 45.9062 24.2188 45.375 24.5156C44.8594 24.8281 44.4453 24.9844 44.1328 24.9844H44.0859C43.7734 24.9844 43.4375 24.9453 43.0781 24.8672C42.7188 24.7891 42.3828 24.6797 42.0703 24.5391C41.7578 24.4141 41.4922 24.2578 41.2734 24.0703C41.0703 23.8828 40.9688 23.6797 40.9688 23.4609C40.9531 23.2734 40.9453 23.0391 40.9453 22.7578C40.9453 22.4766 40.9375 22.2031 40.9219 21.9375C40.5625 22.2969 40.1953 22.6406 39.8203 22.9688C39.4453 23.2812 39.0781 23.5547 38.7188 23.7891C38.375 24.0234 38.0391 24.2109 37.7109 24.3516C37.3984 24.4922 37.1094 24.5625 36.8438 24.5625C36.7188 24.5625 36.6328 24.5547 36.5859 24.5391C36.3047 24.4766 36.0469 24.3359 35.8125 24.1172C35.5781 23.9141 35.375 23.6562 35.2031 23.3438C35.0469 23.0312 34.9219 22.6875 34.8281 22.3125C34.7344 21.9219 34.6875 21.5234 34.6875 21.1172C34.6875 20.5547 34.7812 20.0234 34.9688 19.5234C35.0938 19.1953 35.2812 18.7969 35.5312 18.3281C35.7812 17.8594 36.0625 17.375 36.375 16.875C36.7031 16.3594 37.0469 15.8438 37.4062 15.3281C37.7812 14.7969 38.1562 14.3281 38.5312 13.9219C38.9062 13.5 39.2656 13.1484 39.6094 12.8672C39.9688 12.5859 40.2969 12.4219 40.5938 12.375C40.6719 12.3594 40.7422 12.3516 40.8047 12.3516C40.8672 12.3516 40.9297 12.3516 40.9922 12.3516C41.3984 12.3516 41.7344 12.4297 42 12.5859C42.2812 12.7422 42.5078 12.9141 42.6797 13.1016C42.8828 12.3359 43.0938 11.5859 43.3125 10.8516C43.5469 10.1016 43.7656 9.42188 43.9688 8.8125C44.1875 8.1875 44.3906 7.65625 44.5781 7.21875C44.7812 6.76562 44.9688 6.44531 45.1406 6.25781C45.3594 6.03906 45.5859 5.89063 45.8203 5.8125C46.0547 5.71875 46.2969 5.67188 46.5469 5.67188C46.8125 5.67188 47.0703 5.72656 47.3203 5.83594C47.5703 5.92969 47.7891 6.05469 47.9766 6.21094C48.1797 6.35156 48.3359 6.51562 48.4453 6.70312C48.5703 6.89062 48.6328 7.07031 48.6328 7.24219V7.3125C48.6172 7.48438 48.5078 7.85938 48.3047 8.4375C48.1016 9.01562 47.8359 9.71094 47.5078 10.5234C47.1953 11.3203 46.8359 12.1875 46.4297 13.125C46.0234 14.0625 45.6016 14.9688 45.1641 15.8438C44.7422 16.7188 44.3281 17.5234 43.9219 18.2578C43.5156 18.9766 43.1484 19.5312 42.8203 19.9219ZM51.9375 14.1797C52.1719 13.7734 52.4141 13.3047 52.6641 12.7734C52.9141 12.2422 53.1406 11.7031 53.3438 11.1562C53.5625 10.6094 53.7422 10.0859 53.8828 9.58594C54.0234 9.08594 54.0938 8.66406 54.0938 8.32031C54.0938 8.13281 54.0625 7.96094 54 7.80469C53.7812 8.17969 53.5547 8.65625 53.3203 9.23438C53.1016 9.8125 52.8984 10.4141 52.7109 11.0391C52.5234 11.6484 52.3594 12.2422 52.2188 12.8203C52.0781 13.3828 51.9844 13.8359 51.9375 14.1797ZM61.9219 21.5156C61.5 22.1406 61.0547 22.6406 60.5859 23.0156C60.1328 23.3906 59.6797 23.6875 59.2266 23.9062C58.7891 24.1094 58.3594 24.2422 57.9375 24.3047C57.5312 24.3828 57.1641 24.4219 56.8359 24.4219C56.6641 24.4219 56.5078 24.4141 56.3672 24.3984C56.2422 24.3984 56.1328 24.3906 56.0391 24.375C55.9297 24.3594 55.8359 24.3359 55.7578 24.3047C55.2734 24.1484 54.9375 23.875 54.75 23.4844C54.5781 23.0938 54.4922 22.625 54.4922 22.0781C54.4922 21.5312 54.5547 20.9375 54.6797 20.2969C54.8203 19.6562 54.9688 19.0234 55.125 18.3984C55.2969 17.7578 55.4531 17.1562 55.5938 16.5938C55.7344 16.0312 55.8047 15.5547 55.8047 15.1641C55.8047 15.0391 55.7891 14.8984 55.7578 14.7422C55.3047 14.8828 54.8438 15.0859 54.375 15.3516C53.9219 15.6172 53.4844 15.9219 53.0625 16.2656C52.6562 16.5938 52.2812 16.9609 51.9375 17.3672C51.5938 17.7578 51.3281 18.1484 51.1406 18.5391C51 18.8203 50.9062 18.9609 50.8594 18.9609C50.8594 18.9609 50.8516 18.9453 50.8359 18.9141L49.7344 24.1172L47.6953 23.6016C47.7734 23.2422 47.8906 22.7422 48.0469 22.1016C48.2031 21.4609 48.375 20.7344 48.5625 19.9219C48.7656 19.0938 48.9844 18.2188 49.2188 17.2969C49.4688 16.3594 49.7188 15.4219 49.9688 14.4844C50.2188 13.5469 50.4766 12.6328 50.7422 11.7422C51.0078 10.8516 51.2656 10.0469 51.5156 9.32812C51.7656 8.59375 52 7.97656 52.2188 7.47656C52.4531 6.96094 52.6562 6.61719 52.8281 6.44531C53 6.27344 53.1719 6.15625 53.3438 6.09375C53.5312 6.01562 53.7109 5.97656 53.8828 5.97656C54.1328 5.97656 54.3672 6.05469 54.5859 6.21094C54.8203 6.35156 55.0234 6.53906 55.1953 6.77344C55.3672 7.00781 55.5 7.27344 55.5938 7.57031C55.7031 7.85156 55.7578 8.13281 55.7578 8.41406C55.7578 8.57031 55.7109 8.8125 55.6172 9.14062C55.5234 9.46875 55.3906 9.85938 55.2188 10.3125C55.0625 10.7656 54.875 11.2656 54.6562 11.8125C54.4375 12.3594 54.2031 12.9375 53.9531 13.5469C54.2656 13.3125 54.5469 13.1406 54.7969 13.0312C55.0625 12.9219 55.3359 12.8516 55.6172 12.8203H55.6875C55.8594 12.8203 56.0859 12.8906 56.3672 13.0312C56.6641 13.1562 56.9453 13.3125 57.2109 13.5C57.4922 13.6719 57.7266 13.8516 57.9141 14.0391C58.1172 14.2266 58.2188 14.375 58.2188 14.4844V14.5312C58.1875 14.8906 58.0703 15.3906 57.8672 16.0312C57.6641 16.6562 57.4453 17.3281 57.2109 18.0469C56.9766 18.7656 56.7656 19.4688 56.5781 20.1562C56.3906 20.8438 56.2969 21.4297 56.2969 21.9141C56.2969 22.3984 56.4141 22.7188 56.6484 22.875C56.6797 22.8906 56.7266 22.9062 56.7891 22.9219C56.8516 22.9375 56.9844 22.9453 57.1875 22.9453C57.375 22.9453 57.6016 22.9141 57.8672 22.8516C58.1484 22.7891 58.4531 22.6562 58.7812 22.4531C59.125 22.25 59.4844 21.9609 59.8594 21.5859C60.25 21.1953 60.6562 20.6875 61.0781 20.0625L61.9219 21.5156ZM70.1953 13.8984C69.8984 14.1172 69.7188 14.3594 69.6562 14.625C69.6094 14.8906 69.5312 15.1953 69.4219 15.5391C69.5469 15.3672 69.6953 15.1406 69.8672 14.8594C70.0547 14.5781 70.1641 14.2578 70.1953 13.8984ZM73.7812 21.6562C72.4531 23.0312 71.1953 23.8672 70.0078 24.1641C69.5859 24.2734 69.1953 24.3281 68.8359 24.3281C68.2109 24.3281 67.7734 24.1719 67.5234 23.8594C67.2734 23.5312 67.1406 23.1406 67.125 22.6875V22.4062C67.125 22.2344 67.125 22.0312 67.125 21.7969C67.125 21.5469 67.1328 21.2656 67.1484 20.9531C66.4766 21.7969 65.8359 22.5156 65.2266 23.1094C64.6172 23.6875 64.1328 24.0156 63.7734 24.0938C63.5547 24.125 63.3438 24.1484 63.1406 24.1641C62.9375 24.1953 62.7266 24.2109 62.5078 24.2109C62.1797 24.2109 61.8672 24.1797 61.5703 24.1172C61.2891 24.0703 61.0391 23.9844 60.8203 23.8594C60.6016 23.7188 60.4297 23.5469 60.3047 23.3438C60.1797 23.1406 60.1172 22.8828 60.1172 22.5703V22.4766C60.1172 22.3984 60.1406 22.1953 60.1875 21.8672C60.2188 21.5234 60.3125 20.9922 60.4688 20.2734C60.6406 19.5547 60.8984 18.6016 61.2422 17.4141C61.5859 16.2266 62.0625 14.7344 62.6719 12.9375L64.875 13.0547C64.3281 14.3047 63.8828 15.4219 63.5391 16.4062C63.2109 17.375 62.9531 18.2266 62.7656 18.9609C62.5938 19.6797 62.4766 20.2891 62.4141 20.7891C62.3516 21.2891 62.3203 21.6953 62.3203 22.0078C62.3203 22.1797 62.3203 22.3203 62.3203 22.4297C62.3359 22.5234 62.3516 22.6094 62.3672 22.6875C62.3828 22.7656 62.3984 22.8281 62.4141 22.875C62.7734 22.6875 63.1719 22.4297 63.6094 22.1016C64.0469 21.7578 64.4844 21.375 64.9219 20.9531C65.3594 20.5312 65.7891 20.0859 66.2109 19.6172C66.6328 19.1328 67.0156 18.6562 67.3594 18.1875C67.4062 17.6562 67.4688 17.1328 67.5469 16.6172C67.625 16.1016 67.7188 15.625 67.8281 15.1875C67.9375 14.75 68.0547 14.3594 68.1797 14.0156C68.3047 13.6719 68.4531 13.4141 68.625 13.2422C68.9062 12.9766 69.2422 12.8438 69.6328 12.8438C69.8672 12.8438 70.0938 12.8906 70.3125 12.9844C70.5312 13.0625 70.7266 13.1719 70.8984 13.3125C71.0703 13.4375 71.2109 13.5859 71.3203 13.7578C71.4297 13.9297 71.4844 14.1016 71.4844 14.2734V14.3438C71.4688 14.4531 71.3984 14.6406 71.2734 14.9062C71.1484 15.1562 70.9688 15.4688 70.7344 15.8438C70.5156 16.2188 70.2578 16.6328 69.9609 17.0859C69.6797 17.5234 69.3672 17.9844 69.0234 18.4688C68.9453 18.875 68.8828 19.2891 68.8359 19.7109C68.7891 20.1172 68.7656 20.5234 68.7656 20.9297C68.7656 21.3828 68.8047 21.8047 68.8828 22.1953C68.9609 22.5703 69.0859 22.8906 69.2578 23.1562C69.6484 22.9844 70.0781 22.7266 70.5469 22.3828C71.0156 22.0234 71.4609 21.6641 71.8828 21.3047C72.3203 20.9297 72.7031 20.5938 73.0312 20.2969C73.3594 19.9844 73.5703 19.7891 73.6641 19.7109L73.7812 21.6562ZM84.9375 21.5391C84.7656 21.8672 84.5547 22.1953 84.3047 22.5234C84.0547 22.8516 83.7656 23.1641 83.4375 23.4609C83.125 23.7422 82.7812 23.9844 82.4062 24.1875C82.0312 24.4062 81.6406 24.5547 81.2344 24.6328C81.0625 24.6641 80.8984 24.6875 80.7422 24.7031C80.6016 24.7188 80.4531 24.7266 80.2969 24.7266C79.625 24.7266 79.0391 24.5859 78.5391 24.3047C78.0391 24.0391 77.7578 23.625 77.6953 23.0625V22.8281C77.6953 22.4844 77.7266 22 77.7891 21.375C77.8672 20.7344 77.9531 20.0625 78.0469 19.3594C78.1562 18.6406 78.2656 17.9375 78.375 17.25C78.4844 16.5469 78.5781 15.9531 78.6562 15.4688L77.1797 14.8125L73.3125 24.4688L71.2734 24.1641C71.3672 23.9453 71.5469 23.5469 71.8125 22.9688C72.0781 22.3906 72.375 21.75 72.7031 21.0469C73.0312 20.3438 73.3516 19.6484 73.6641 18.9609C73.9922 18.2578 74.2578 17.6797 74.4609 17.2266C74.6328 16.8047 74.8203 16.2891 75.0234 15.6797C75.2266 15.0703 75.4141 14.4688 75.5859 13.875C75.7578 13.2656 75.8984 12.7188 76.0078 12.2344C76.1172 11.75 76.1719 11.4219 76.1719 11.25L78.2344 11.7656C78.1875 11.8281 78.1562 11.8984 78.1406 11.9766C78.125 12.0391 78.1172 12.1094 78.1172 12.1875C78.1172 12.375 78.1484 12.5625 78.2109 12.75C78.2891 12.9219 78.375 13.0859 78.4688 13.2422C78.5781 13.3828 78.6953 13.5 78.8203 13.5938C78.9609 13.6875 79.0938 13.7344 79.2188 13.7344C79.3125 13.7344 79.3984 13.6953 79.4766 13.6172C79.5703 13.5234 79.6328 13.3672 79.6641 13.1484C79.6797 13.0547 79.7422 12.9688 79.8516 12.8906C79.9766 12.7969 80.1094 12.7188 80.25 12.6562C80.4062 12.5781 80.5625 12.5234 80.7188 12.4922C80.8906 12.4453 81.0312 12.4219 81.1406 12.4219C81.2969 12.4219 81.3828 12.4531 81.3984 12.5156C81.4766 12.625 81.5469 12.7578 81.6094 12.9141C81.6875 13.0547 81.7266 13.2109 81.7266 13.3828C81.7266 13.5547 81.6875 13.7188 81.6094 13.875C81.5469 14.0312 81.4297 14.1719 81.2578 14.2969C81.0078 14.4844 80.7891 14.7891 80.6016 15.2109C80.4141 15.6328 80.25 16.1172 80.1094 16.6641C79.9844 17.2109 79.8906 17.7969 79.8281 18.4219C79.7656 19.0469 79.7344 19.6641 79.7344 20.2734C79.7344 20.8672 79.7656 21.4375 79.8281 21.9844C79.8906 22.5312 79.9922 22.9844 80.1328 23.3438C80.6172 23.25 81.0391 23.1328 81.3984 22.9922C81.7578 22.8516 82.0781 22.6719 82.3594 22.4531C82.6562 22.2188 82.9219 21.9453 83.1562 21.6328C83.4062 21.3047 83.6484 20.9062 83.8828 20.4375L84.9375 21.5391ZM86.2031 22.5938C86.375 22.5938 86.6016 22.5078 86.8828 22.3359C87.1641 22.1484 87.4688 21.9062 87.7969 21.6094C88.125 21.3125 88.4609 20.9766 88.8047 20.6016C89.1641 20.2266 89.5078 19.8516 89.8359 19.4766C90.0078 18.9297 90.2266 18.2656 90.4922 17.4844C90.7734 16.6875 91.0859 15.8281 91.4297 14.9062L91.1016 15.5391C91.0547 15.3047 90.9766 15.0859 90.8672 14.8828C90.7578 14.6797 90.6328 14.5 90.4922 14.3438C90.3516 14.1719 90.2031 14.0391 90.0469 13.9453C89.9062 13.8516 89.7812 13.8047 89.6719 13.8047C89.5938 13.8047 89.5391 13.8203 89.5078 13.8516C89.4453 13.8984 89.3047 14.0469 89.0859 14.2969C88.8828 14.5312 88.6328 14.8281 88.3359 15.1875C88.0547 15.5469 87.75 15.9453 87.4219 16.3828C87.1094 16.8203 86.8125 17.25 86.5312 17.6719C86.2656 18.0938 86.0312 18.4922 85.8281 18.8672C85.625 19.2266 85.5078 19.5156 85.4766 19.7344C85.4453 19.9531 85.4141 20.1797 85.3828 20.4141C85.3516 20.6328 85.3359 20.8516 85.3359 21.0703C85.3359 21.4766 85.3906 21.8281 85.5 22.125C85.625 22.4219 85.8438 22.5781 86.1562 22.5938H86.2031ZM96.7734 21.0234C96.5703 21.2578 96.2812 21.5859 95.9062 22.0078C95.5312 22.4297 95.125 22.8516 94.6875 23.2734C94.2656 23.6797 93.8359 24.0312 93.3984 24.3281C92.9766 24.6406 92.6172 24.7969 92.3203 24.7969H92.2734C91.9766 24.7969 91.6562 24.7578 91.3125 24.6797C90.9688 24.6016 90.6484 24.4922 90.3516 24.3516C90.0703 24.2266 89.8281 24.0781 89.625 23.9062C89.4375 23.7188 89.3438 23.5156 89.3438 23.2969V23.2734C89.3438 23.1172 89.3516 22.9375 89.3672 22.7344C89.3828 22.5156 89.3984 22.2891 89.4141 22.0547C88.7422 22.7109 88.0703 23.2578 87.3984 23.6953C86.7422 24.1328 86.1641 24.3516 85.6641 24.3516C85.5391 24.3516 85.4531 24.3438 85.4062 24.3281C85.125 24.2812 84.8672 24.1484 84.6328 23.9297C84.3984 23.6953 84.1953 23.4141 84.0234 23.0859C83.8672 22.7422 83.7422 22.3672 83.6484 21.9609C83.5547 21.5547 83.5078 21.1484 83.5078 20.7422C83.5078 20.1484 83.6016 19.5938 83.7891 19.0781C83.9141 18.75 84.0938 18.3594 84.3281 17.9062C84.5625 17.4531 84.8281 16.9766 85.125 16.4766C85.4375 15.9766 85.7656 15.4844 86.1094 15C86.4688 14.5 86.8203 14.0469 87.1641 13.6406C87.5234 13.2344 87.875 12.9062 88.2188 12.6562C88.5625 12.3906 88.8828 12.2344 89.1797 12.1875C89.2578 12.1719 89.3281 12.1641 89.3906 12.1641C89.4531 12.1641 89.5156 12.1641 89.5781 12.1641C89.9062 12.1641 90.1953 12.2109 90.4453 12.3047C90.7109 12.3984 90.9375 12.5234 91.125 12.6797C91.3281 12.8203 91.4922 12.9766 91.6172 13.1484C91.7422 13.3203 91.8359 13.4766 91.8984 13.6172C91.9453 13.4297 92 13.2812 92.0625 13.1719L93.5859 13.4062C93.1641 14.4688 92.7734 15.5469 92.4141 16.6406C92.0547 17.7188 91.7734 18.75 91.5703 19.7344L91.5938 19.8047L91.5469 19.8516C91.4531 20.3203 91.375 20.7656 91.3125 21.1875C91.2656 21.6094 91.2422 22 91.2422 22.3594C91.2422 22.5312 91.2422 22.6797 91.2422 22.8047C91.2578 22.9297 91.2734 23.0547 91.2891 23.1797C91.6797 23.0391 92.1172 22.8281 92.6016 22.5469C93.1016 22.2656 93.5859 21.9531 94.0547 21.6094C94.5391 21.2656 94.9922 20.9141 95.4141 20.5547C95.8359 20.1797 96.1797 19.8516 96.4453 19.5703L96.7734 21.0234Z" fill="white"/>
<circle cx="107" cy="17" r="4" fill="#F94343"/>
</svg>
